Coordinates
version=1
nRows=17
nColumns=24
inDegrees=yes

Units are S.I. units (second, meters, Newtons, ...)
Angles are in degrees.

endheader
time	pelvis_tilt	pelvis_list	pelvis_rotation	pelvis_tx	pelvis_ty	pelvis_tz	hip_flexion_r	hip_adduction_r	hip_rotation_r	knee_angle_r	ankle_angle_r	subtalar_angle_r	mtp_angle_r	hip_flexion_l	hip_adduction_l	hip_rotation_l	knee_angle_l	ankle_angle_l	subtalar_angle_l	mtp_angle_l	lumbar_extension	lumbar_bending	lumbar_rotation
      0.78150000	      0.08184998	     -1.18770668	      2.17462277	     -0.47369090	      0.99701412	      0.31816216	      9.43353728	      5.08322580	     -5.03355549	    -15.68177123	      8.78786767	     -6.17945372	      2.35114315	     18.57991599	     -0.84431488	      0.78300174	    -69.52094948	     -7.12536720	     -7.37247173	      0.60372191	     -0.06452795	      4.80272662	      2.72301435
      0.78566667	      0.13534861	     -1.10903730	      2.11771817	     -0.46862472	      0.99769116	      0.31845574	      8.88546867	      5.02342706	     -5.08684587	    -15.36570489	      8.91951262	     -5.86192164	      2.38694248	     19.07658600	     -0.72452259	      0.77741293	    -69.29871380	     -6.46732109	     -7.50244531	      0.53874187	     -0.15566819	      4.72680459	      2.95061387
      0.78983333	      0.14720211	     -1.02150416	      2.03820156	     -0.46359577	      0.99826852	      0.31877743	      8.40232214	      4.95632685	     -5.10321674	    -15.08721094	      9.05240206	     -5.63575149	      2.42081362	     19.60611970	     -0.60158920	      0.73975345	    -69.02727239	     -5.79479091	     -7.68941397	      0.47975738	     -0.19972632	      4.63413892	      3.11884975
      0.79400000	      0.18022495	     -0.93129810	      1.95438571	     -0.45857035	      0.99884777	      0.31910312	      7.89345345	      4.88940382	     -5.09963105	    -14.80127269	      9.17356771	     -5.43327787	      2.45279058	     20.09499184	     -0.48068654	      0.69339052	    -68.69913401	     -5.11674862	     -7.87418565	      0.42475239	     -0.27239445	      4.53807976	      3.28079756
      0.79816667	      0.18555989	     -0.85583406	      1.86278563	     -0.45357537	      0.99931249	      0.31945258	      7.42494483	      4.83985954	     -5.07975502	    -14.52931927	      9.29621745	     -5.23961400	      2.48556530	     20.60920060	     -0.38301087	      0.63984655	    -68.33867386	     -4.42923086	     -8.03717025	      0.36827211	     -0.31479719	      4.45570309	      3.45590050
      0.80233333	      0.20313745	     -0.75910093	      1.76154313	     -0.44856710	      0.99980309	      0.31979659	      6.94112323	      4.76724109	     -5.04447527	    -14.25545444	      9.41508027	     -5.06271915	      2.51508930	     21.08135132	     -0.26503859	      0.56928290	    -67.90272605	     -3.75953906	     -8.20798375	      0.31428351	     -0.36919425	      4.35149999	      3.62747785
      0.80650000	      0.19652268	     -0.68683335	      1.65758205	     -0.44358485	      1.00019436	      0.32015268	      6.48909381	      4.72291576	     -4.99237392	    -13.98567439	      9.52925248	     -4.91092388	      2.54248847	     21.57557692	     -0.17923966	      0.49865526	    -67.43648584	     -3.09079749	     -8.35675453	      0.26055460	     -0.39798008	      4.27202336	      3.79818122
      0.81066667	      0.17231282	     -0.60725364	      1.54309141	     -0.43863132	      1.00052140	      0.32051137	      6.06834913	      4.67033707	     -4.92060324	    -13.73793806	      9.63390178	     -4.79907041	      2.55653187	     22.07363916	     -0.08797467	      0.41501670	    -66.92054137	     -2.44435806	     -8.54551267	      0.23622690	     -0.41214651	      4.18024427	      3.90110138
      0.81483333	      0.15157414	     -0.52816673	      1.42383104	     -0.43367743	      1.00080383	      0.32087365	      5.64352799	      4.61790928	     -4.83864085	    -13.48809557	      9.74505922	     -4.67011791	      2.57133306	     22.55225252	     -0.00505415	      0.32224607	    -66.35689851	     -1.81307757	     -8.68173809	      0.20602784	     -0.42797393	      4.09306431	      4.05482087
      0.81900000	      0.14848500	     -0.44863160	      1.29626685	     -0.42869881	      1.00108837	      0.32123764	      5.19685466	      4.56388467	     -4.76070828	    -13.23285178	      9.85611237	     -4.53314667	      2.58816388	     22.98626721	      0.07068847	      0.21678912	    -65.73393189	     -1.21423685	     -8.79389216	      0.15895312	     -0.45067712	      4.00580194	      4.25366908
      0.82316667	      0.09860903	     -0.37398221	      1.18988422	     -0.42377646	      1.00124720	      0.32156662	      4.80460271	      4.51506688	     -4.66283132	    -12.97852984	      9.96099819	     -4.42331655	      2.59847875	     23.47112506	      0.15834247	      0.14742151	    -65.08114431	     -0.66634673	     -8.93894509	      0.13170824	     -0.45001384	      3.91345895	      4.36348314
      0.82733333	      0.07940715	     -0.30366669	      1.04265669	     -0.41882322	      1.00141518	      0.32194028	      4.39101129	      4.46904991	     -4.55821139	    -12.75005739	     10.06082991	     -4.30146493	      2.61260025	     23.89089072	      0.21137805	      0.02102920	    -64.36935967	     -0.12209229	     -9.03190018	      0.07320448	     -0.45782982	      3.84180973	      4.56906579
      0.83150000	      0.07012470	     -0.23801569	      0.92667396	     -0.41386644	      1.00156443	      0.32228046	      3.94491472	      4.43031836	     -4.45760788	    -12.47437133	     10.16344993	     -4.19349812	      2.63052219	     24.28895164	      0.27093331	     -0.07038724	    -63.61466599	      0.34836387	     -9.11743122	     -0.03614837	     -0.48714611	      3.76075578	      4.80498396
      0.83566667	     -0.00272333	     -0.18176468	      0.81355996	     -0.40895530	      1.00156057	      0.32258528	      3.58823365	      4.39694204	     -4.35350470	    -12.23621530	     10.25679860	     -4.10967096	      2.63702979	     24.75002783	      0.33094954	     -0.14605732	    -62.82992883	      0.78614066	     -9.24889702	     -0.06505457	     -0.44774317	      3.69652301	      4.85288596
      0.83983333	     -0.01824638	     -0.11109309	      0.66554007	     -0.40400981	      1.00161594	      0.32294572	      3.16699600	      4.34961721	     -4.22462737	    -11.99553306	     10.34848858	     -4.02545876	      2.64963902	     25.11334022	      0.37550514	     -0.28137655	    -61.97831246	      1.18108677	     -9.33447511	     -0.18437267	     -0.46661750	      3.61385989	      5.07439556
      0.84400000	     -0.05722525	     -0.04413439	      0.53070779	     -0.39909042	      1.00160023	      0.32324446	      2.77823518	      4.30067762	     -4.09728253	    -11.76555566	     10.42955357	     -3.94720617	      2.65820630	     25.48797583	      0.43484309	     -0.38423875	    -61.08409358	      1.53712258	     -9.44673418	     -0.27357603	     -0.46673118	      3.55013012	      5.17615096
      0.84816667	     -0.12891979	     -0.00380003	      0.43326448	     -0.39416408	      1.00148280	      0.32351928	      2.41082375	      4.28223284	     -3.99780594	    -11.50529657	     10.52631835	     -3.86771952	      2.66351158	     25.89507750	      0.47659003	     -0.44217132	    -60.16919620	      1.84122245	     -9.53888493	     -0.31446609	     -0.42739715	      3.49710705	      5.23567801
